<svg width="178" height="171" viewBox="0 0 178 171" fill="none" xmlns="http://www.w3.org/2000/svg">
<path d="M177.955 81.6431C177.955 130.995 138.13 171 89.0011 171C39.8725 171 0.0454712 130.992 0.0454712 81.6431C0.0454712 32.2946 53.003 48.5045 88.9989 14.9211C135.712 -28.6614 177.955 32.2924 177.955 81.6431Z" fill="#BC231D"/>
<path d="M77.8798 102.385C77.6903 105.414 79.1842 107.218 82.3299 107.42C84.9973 107.591 87.6811 107.501 90.3575 107.539C93.8471 107.588 97.365 107.495 100.75 108.499C103.324 109.262 103.842 110.47 102.995 112.99C102.622 114.101 102.124 115.143 101.495 116.133C99.4277 119.388 96.9963 122.357 94.4118 125.207C89.5188 130.601 84.1851 135.557 79.0088 140.669C78.4187 141.252 77.6225 141.731 77.4759 142.684C78.3288 143.177 78.8733 142.606 79.4357 142.254C87.4598 137.234 94.9017 131.473 101.471 124.643C104.381 121.617 107.071 118.385 108.705 114.441C110.805 109.374 109.197 105.182 104.29 102.832C101.46 101.477 98.4069 101.038 95.3364 100.674C94.3236 100.554 93.311 100.432 92.3097 100.312C92.3278 99.4658 92.8921 99.2573 93.2772 98.9598C97.4245 95.7557 101.462 92.4182 105.342 88.8972C113.074 81.8795 120.466 74.5468 126.091 65.6483C128.595 61.6876 130.638 57.5184 131.579 52.8836C133.89 41.5008 126.102 33.7134 114.696 35.95C107.675 37.3268 101.805 40.8861 96.5647 45.5474C85.9644 54.977 79.0831 66.913 73.8033 79.881C69.583 90.2467 67.2976 101.119 65.5647 112.122C64.604 118.222 63.8549 124.348 64.5207 130.541C65.1504 136.399 69.0106 138.816 74.4953 136.817C75.0412 136.618 75.5942 136.412 76.0973 136.127C85.1106 131.02 92.0923 123.634 98.7552 115.894C98.9456 115.672 99.0822 115.403 98.6588 114.955C96.9548 115.674 95.4423 116.829 93.9376 117.975C89.0313 121.712 84.1611 125.499 78.9657 128.834C77.0094 130.09 75.0477 131.355 72.7969 132.062C71.5221 132.463 70.8148 132.15 70.656 130.7C70.4137 128.485 70.3921 126.273 70.7132 124.082C73.2033 107.093 77.4617 90.6425 85.9152 75.5277C90.8681 66.6718 96.7148 58.5046 105.056 52.4612C108.801 49.7473 112.821 47.5118 117.538 46.9682C120.07 46.6764 121.005 47.5911 120.844 50.1156C120.595 54.021 118.844 57.3759 116.864 60.623C112.81 67.2706 107.74 73.1174 102.409 78.7484C95.7503 85.7815 88.3181 91.9593 80.8944 98.146C79.5949 99.2289 78.2836 100.324 77.8798 102.385Z" fill="white"/>
</svg>
